<svg width="375.7" height="62.082127744419424" viewBox="0 0 370.3636363636364 61.20032628324455" xmlns="http://www.w3.org/2000/svg"><defs id="SvgjsDefs1591"></defs><g id="SvgjsG1592" featurekey="symbolFeature-0" transform="matrix(0.9720817433376775,0,0,0.9720817433376775,-16.785909056899623,-18.003925879360384)" fill="#ff7b00"><path xmlns="http://www.w3.org/2000/svg" fill="#ff7b00" d="M82.732,21.095l-19.867,9.265L37.478,18.521l-20.21,9.424v50.962l20.21-9.426v0.002L62.521,81.16v0.319  l0.342-0.159l0.008,0.003v-0.007l19.861-9.261V21.095z M37.454,63.748l-14.979,6.984V31.262l14.979-6.985V63.748z M57.664,73.15  l-14.979-6.984V26.693l14.979,6.985V73.15z M77.525,68.738l-14.654,6.834V36.102l14.654-6.834V68.738z"></path></g><g id="SvgjsG1593" featurekey="nameFeature-0" transform="matrix(1.6044578844611161,0,0,1.6044578844611161,82.33136386136565,-10.39232065211879)" fill="#ffffff"><path d="M13.52 40 l-3.36 0 l-9.12 -29.16 l3.2 0 l7.64 24.76 l0.08 0 l7.68 -24.76 l3.48 0 l7.76 24.88 l0.04 0 l7.68 -24.88 l3.08 0 l-9.16 29.16 l-3.4 0 l-7.76 -25.04 z M68.24 40 l-3.2 -7.44 l-15.88 0 l-3.2 7.44 l-3.12 0 l12.56 -29.16 l3.48 0 l12.6 29.16 l-3.24 0 z M63.879999999999995 29.759999999999998 l-6.8 -15.76 l-6.76 15.76 l13.56 0 z M75.64 40 l0 -29.16 l3.08 0 l0 26.28 l13.84 0 l0 2.88 l-16.92 0 z M100.44 40 l-3.08 0 l0 -29.16 l3.08 0 l0 12.88 l0.2 0 l13.08 -12.88 l4.24 0 l-14.28 13.96 l14.96 15.2 l-4.32 0 l-13.68 -14.04 l-0.2 0 l0 14.04 z M148.6 10.84 l4.4 0 l0 29.16 l-3.04 0 l0 -25 l0 0 l-10.84 25 l-2.76 0 l-10.76 -24.8 l0 0 l0 24.8 l-3.04 0 l0 -29.16 l4.36 0 l10.88 25 z M161.11999999999998 40 l0 -29.16 l18.24 0 l0 2.84 l-15.16 0 l0 10.08 l13.88 0 l0 2.84 l-13.88 0 l0 10.56 l15.32 0 l0 2.84 l-18.4 0 z"></path></g></svg>