<svg version="1.1" xmlns="http://www.w3.org/2000/svg" xmlns:xlink="http://www.w3.org/1999/xlink" x="0px" y="0px" viewBox="0 0 256 256" enable-background="new 0 0 256 256" xml:space="preserve">
<metadata> Svg Vector Icons : http://www.onlinewebfonts.com/icon </metadata>
<g><g><g><path fill="#ff7b00" d="M119.1,10.4c-27,2.6-52,18.2-66.5,41.7c-10.8,17.4-15.5,40.1-11.9,57.4c5.4,25.8,28.4,64.6,66.1,111.6c10.4,13,20.6,24.9,21.2,24.9c0.6,0,13.4-15.2,22.2-26.1c37.2-46.5,60.7-86.4,65.3-111.1c2.2-11.4,0.9-24.9-3.5-38.1C198.9,31.3,160.6,6.4,119.1,10.4z M139.1,48.3c7.5,1.9,13.5,5.4,19.5,11c5,4.8,8.8,10.4,10.9,16.4c2.2,6,2.5,8.2,2.5,15.8c0,6.7-0.1,7.8-1.3,11.5c-2.4,8.2-6.1,14.4-12,20c-5.8,5.5-11.1,8.6-19,11c-3.8,1.2-4.8,1.3-11.8,1.3c-7,0-8-0.1-11.8-1.3c-8.4-2.5-14.5-6.2-20.2-12.2c-5.6-5.9-9-11.9-11-19.5c-1.5-5.7-1.5-16.5,0-22.2c4.7-17.3,19-30.1,36.8-32.9C125.3,46.6,135.2,47.2,139.1,48.3z"/></g></g></g>
</svg>